<?xml version="1.0" standalone="no"?>
<!DOCTYPE svg PUBLIC "-//W3C//DTD SVG 20010904//EN"
 "http://www.w3.org/TR/2001/REC-SVG-20010904/DTD/svg10.dtd">
<svg version="1.0" xmlns="http://www.w3.org/2000/svg"
 width="700.000000pt" height="700.000000pt" viewBox="0 0 700.000000 700.000000"
 preserveAspectRatio="xMidYMid meet">
<metadata>
Created by potrace 1.11, written by Peter Selinger 2001-2013
</metadata>
<g transform="translate(0.000000,700.000000) scale(0.100000,-0.100000)"
fill="#000000" stroke="none">
<path d="M2736 6360 c-70 -124 -139 -245 -153 -270 -14 -25 -38 -67 -53 -95
-23 -42 -103 -184 -155 -275 -8 -14 -56 -98 -106 -187 -50 -90 -94 -163 -98
-163 -3 0 -5 90 -3 200 3 186 2 200 -15 201 -56 3 -2130 4 -2140 1 -10 -3 -13
-111 -13 -496 l0 -492 211 1 c116 0 214 -2 218 -5 5 -3 8 -438 8 -966 l0 -962
-156 0 c-86 -1 -180 -1 -209 -1 l-52 -1 2 -487 3 -488 215 0 215 0 13 -64 c46
-234 167 -456 339 -621 192 -186 522 -387 823 -503 108 -42 310 -106 380 -122
14 -3 77 -16 140 -30 114 -25 390 -68 505 -80 33 -3 83 -8 110 -10 261 -26
774 -36 1125 -21 252 10 362 19 585 47 330 41 652 119 900 219 108 43 286 126
325 150 8 6 44 27 80 48 123 71 280 183 352 250 164 154 290 383 358 645 10
43 21 81 24 85 2 4 108 7 235 7 225 0 231 0 232 20 2 78 -2 949 -5 952 -2 3
-96 5 -207 6 l-204 2 0 962 -1 961 26 4 c14 2 112 3 218 2 l192 -1 0 496 0
496 -1083 0 -1082 -1 -5 -203 -5 -203 -94 168 c-52 93 -114 202 -138 242 -23
40 -43 75 -43 78 0 3 -24 46 -54 97 -29 51 -66 115 -81 142 -15 28 -64 115
-110 195 -45 80 -97 172 -115 205 -18 33 -38 67 -44 75 -10 14 -88 15 -647 15
l-637 0 -126 -225z m854 -1382 c28 -51 55 -100 61 -108 5 -8 77 -134 159 -280
l150 -265 -426 -3 c-235 -1 -429 -1 -431 2 -3 3 151 277 291 517 12 20 46 79
76 133 30 53 58 96 62 96 4 0 30 -42 58 -92z m-1760 -199 c0 -8 -120 -250
-135 -272 -10 -14 -12 11 -12 127 0 123 2 146 15 148 28 5 132 3 132 -3z
m3496 -2 c3 -2 3 -68 2 -146 l-3 -143 -72 144 -72 143 27 5 c30 6 111 4 118
-3z m-781 -1482 c17 -33 119 -219 130 -237 6 -9 25 -45 44 -80 18 -35 40 -72
47 -83 8 -11 14 -24 14 -30 0 -8 -88 -11 -302 -11 -167 1 -310 0 -318 -2 -13
-3 -15 -65 -15 -490 l0 -487 468 1 c257 0 467 -1 467 -2 0 -3 -89 -54 -155
-89 -162 -86 -383 -162 -555 -191 -113 -20 -142 -24 -195 -29 -33 -4 -70 -8
-83 -10 -152 -25 -1033 -26 -1167 -1 -11 2 -49 7 -85 10 -114 12 -153 18 -265
43 -38 8 -77 16 -85 18 -132 27 -420 150 -537 230 l-33 22 469 -1 468 -1 -1
495 -1 495 -283 0 c-275 0 -299 3 -273 31 4 5 22 34 38 64 35 65 110 198 164
291 l39 67 997 -2 c986 -1 998 -1 1008 -21z"/>
<path d="M6494 1320 c-56 -25 -83 -59 -96 -122 -10 -49 -9 -59 10 -99 27 -55
75 -88 138 -95 58 -6 103 15 147 68 102 127 -50 316 -199 248z m129 -35 c47
-23 71 -61 71 -115 1 -57 -14 -88 -59 -119 -84 -57 -203 4 -207 106 -4 105
101 174 195 128z"/>
<path d="M6505 1262 c-3 -3 -5 -47 -5 -99 0 -76 3 -93 15 -93 11 0 15 12 15
45 0 25 4 45 9 45 13 0 37 -25 58 -60 9 -17 23 -30 30 -30 19 0 16 11 -11 50
l-23 35 21 10 c25 13 32 53 13 79 -9 12 -28 19 -65 21 -28 1 -54 0 -57 -3z
m95 -32 c23 -14 0 -44 -37 -48 -31 -3 -46 16 -36 46 5 14 51 16 73 2z"/>
</g>
</svg>
